<svg width="24" height="22" viewBox="0 0 24 22" fill="none" xmlns="http://www.w3.org/2000/svg">
<path fill-rule="evenodd" clip-rule="evenodd" d="M10.5275 0.906632C10.9413 0.551705 11.4685 0.356598 12.0137 0.356598C12.5589 0.356598 13.0861 0.551705 13.5 0.906632L20.7326 7.10507L23.5716 9.37668C23.6887 9.47038 23.7862 9.58621 23.8585 9.71757C23.9308 9.84894 23.9765 9.99325 23.993 10.1423C24.0096 10.2913 23.9966 10.4422 23.9548 10.5862C23.9131 10.7302 23.8434 10.8646 23.7497 10.9817C23.656 11.0987 23.5401 11.1962 23.4088 11.2685C23.2774 11.3408 23.1331 11.3866 22.9841 11.4031C22.835 11.4196 22.6842 11.4067 22.5402 11.3649C22.3962 11.3231 22.2618 11.2534 22.1447 11.1597L21.1459 10.3607V19.4003C21.1459 20.0058 20.9053 20.5865 20.4772 21.0147C20.049 21.4428 19.4683 21.6834 18.8628 21.6834H14.2968V15.9758C14.2968 15.3703 14.0562 14.7896 13.6281 14.3614C13.1999 13.9333 12.6192 13.6928 12.0137 13.6928C11.4082 13.6928 10.8275 13.9333 10.3994 14.3614C9.97124 14.7896 9.73071 15.3703 9.73071 15.9758V21.6834H5.16464C4.55914 21.6834 3.97844 21.4428 3.55029 21.0147C3.12214 20.5865 2.88161 20.0058 2.88161 19.4003V10.3595L1.88278 11.1586C1.7665 11.2579 1.63145 11.3328 1.48566 11.3789C1.33987 11.425 1.1863 11.4413 1.03408 11.4269C0.881848 11.4126 0.734063 11.3677 0.599494 11.2951C0.464924 11.2225 0.346312 11.1236 0.250699 11.0043C0.155086 10.885 0.0844206 10.7477 0.0428971 10.6005C0.00137356 10.4533 -0.0101615 10.2993 0.00897659 10.1476C0.0281146 9.99592 0.0775356 9.84961 0.154306 9.71737C0.231077 9.58513 0.333632 9.46967 0.455885 9.37783L3.29484 7.10621L10.5275 0.906632V0.906632Z" fill="black"/>
</svg>
