<svg width="24" height="25" viewBox="0 0 24 25" fill="none" xmlns="http://www.w3.org/2000/svg">
<path d="M4.38226 0.0199738C1.95468 0.0199738 0 1.97465 0 4.40223V19.6377C0 22.0653 1.95468 24.02 4.38226 24.02H12.6398V14.6375H10.1588V11.2595H12.6398V8.37349C12.6398 6.10609 14.1057 4.02423 17.4825 4.02423C18.8497 4.02423 19.8608 4.15549 19.8608 4.15549L19.7813 7.31C19.7813 7.31 18.7501 7.30025 17.625 7.30025C16.4073 7.30025 16.212 7.86133 16.212 8.79277V11.2595H19.878L19.7183 14.6375H16.212V24.02H19.6177C22.0453 24.02 24 22.0653 24 19.6378V4.40225C24 1.97468 22.0453 0.0199978 19.6177 0.0199978H4.38223L4.38226 0.0199738Z" fill="black"/>
</svg>
