<svg width="350" height="46" viewBox="0 0 350 46" fill="none" xmlns="http://www.w3.org/2000/svg">
<path d="M162.455 7C158.567 7 155.436 10.1304 155.436 14.0182V38.4181C155.436 42.3059 158.567 45.4363 162.455 45.4363H175.679V30.4101H171.706V25.0002H175.679V20.3783C175.679 16.747 178.027 13.4129 183.435 13.4129C185.624 13.4129 187.244 13.6231 187.244 13.6231L187.116 18.6751C187.116 18.6751 185.465 18.6595 183.663 18.6595C181.713 18.6595 181.4 19.558 181.4 21.0497V25.0003H187.271L187.015 30.4102H181.4V45.4364H186.854C190.742 45.4364 193.873 42.3059 193.873 38.4181V14.0183C193.873 10.1305 190.742 7.00004 186.854 7.00004H162.454L162.455 7Z" fill="black"/>
<path d="M282.312 18.3635C282.289 16.7477 281.99 15.1448 281.418 13.6337C280.417 11.0532 278.379 9.01272 275.798 8.01383C274.306 7.45249 272.729 7.15154 271.132 7.11739C269.079 7.02561 268.428 7 263.216 7C258.004 7 257.336 7 255.297 7.11739C253.703 7.15154 252.126 7.45249 250.634 8.01383C248.053 9.01272 246.013 11.0532 245.014 13.6337C244.452 15.1256 244.149 16.7029 244.12 18.2973C244.028 20.3527 244 21.0037 244 26.2159C244 31.428 244 32.0939 244.12 34.1344C244.152 35.7309 244.452 37.3061 245.014 38.8023C246.015 41.3806 248.053 43.4211 250.636 44.42C252.121 45.0006 253.699 45.3293 255.299 45.3805C257.355 45.4723 258.006 45.5 263.218 45.5C268.43 45.5 269.098 45.5 271.137 45.3805C272.731 45.3485 274.308 45.0475 275.802 44.4862C278.383 43.4851 280.421 41.4447 281.422 38.8663C281.983 37.3723 282.284 35.7971 282.316 34.1984C282.408 32.1452 282.436 31.4942 282.436 26.2799C282.432 21.0677 282.432 20.4061 282.312 18.3635V18.3635ZM263.203 36.0724C257.752 36.0724 253.336 31.6564 253.336 26.2052C253.336 20.754 257.752 16.3379 263.203 16.3379C268.65 16.3379 273.07 20.754 273.07 26.2052C273.07 31.6564 268.65 36.0724 263.203 36.0724ZM273.463 18.2738C272.189 18.2738 271.162 17.245 271.162 15.9729C271.162 14.7009 272.189 13.6721 273.463 13.6721C274.733 13.6721 275.762 14.7009 275.762 15.9729C275.762 17.245 274.733 18.2738 273.463 18.2738Z" fill="black"/>
<path d="M263.203 32.6147C266.743 32.6147 269.613 29.745 269.613 26.2051C269.613 22.6652 266.743 19.7956 263.203 19.7956C259.663 19.7956 256.793 22.6652 256.793 26.2051C256.793 29.745 259.663 32.6147 263.203 32.6147Z" fill="black"/>
<path fill-rule="evenodd" clip-rule="evenodd" d="M83.8599 9.88089C84.5227 9.31247 85.367 9 86.2402 9C87.1133 9 87.9576 9.31247 88.6204 9.88089L100.204 19.8078L104.75 23.4458C104.938 23.5958 105.094 23.7813 105.21 23.9917C105.325 24.2021 105.399 24.4332 105.425 24.6719C105.452 24.9106 105.431 25.1522 105.364 25.3828C105.297 25.6134 105.185 25.8287 105.035 26.0162C104.885 26.2037 104.7 26.3598 104.489 26.4756C104.279 26.5914 104.048 26.6646 103.809 26.6911C103.571 26.7176 103.329 26.6968 103.098 26.6299C102.868 26.5631 102.653 26.4514 102.465 26.3014L100.865 25.0217V39.4988C100.865 40.4685 100.48 41.3985 99.7945 42.0842C99.1088 42.7699 98.1788 43.1551 97.2091 43.1551H89.8965V34.0143C89.8965 33.0446 89.5112 32.1146 88.8256 31.4289C88.1399 30.7432 87.2099 30.358 86.2402 30.358C85.2704 30.358 84.3404 30.7432 83.6548 31.4289C82.9691 32.1146 82.5839 33.0446 82.5839 34.0143V43.1551H75.2712C74.3015 43.1551 73.3715 42.7699 72.6858 42.0842C72.0001 41.3985 71.6149 40.4685 71.6149 39.4988V25.0198L70.0153 26.2995C69.8291 26.4585 69.6128 26.5785 69.3793 26.6524C69.1458 26.7262 68.8999 26.7524 68.6561 26.7293C68.4123 26.7063 68.1756 26.6345 67.9601 26.5182C67.7446 26.4019 67.5546 26.2435 67.4015 26.0524C67.2484 25.8613 67.1352 25.6414 67.0687 25.4057C67.0022 25.17 66.9837 24.9234 67.0144 24.6804C67.045 24.4375 67.1242 24.2032 67.2471 23.9914C67.3701 23.7796 67.5343 23.5947 67.7301 23.4476L72.2767 19.8096L83.8599 9.88089V9.88089Z" fill="black"/>
<path d="M0 1H350V-1H0V1Z" fill="black" fill-opacity="0.5" mask="url(#path-1-inside-1_154_501)"/>
</svg>
