<svg width="24" height="25" viewBox="0 0 24 25" fill="none" xmlns="http://www.w3.org/2000/svg">
<path d="M4.38226 0.0199671C1.95468 0.0199671 0 1.97465 0 4.40222V19.6377C0 22.0653 1.95468 24.02 4.38226 24.02H12.6398V14.6375H10.1588V11.2595H12.6398V8.37348C12.6398 6.10608 14.1057 4.02422 17.4825 4.02422C18.8497 4.02422 19.8608 4.15548 19.8608 4.15548L19.7813 7.30999C19.7813 7.30999 18.7501 7.30025 17.625 7.30025C16.4073 7.30025 16.212 7.86132 16.212 8.79276V11.2595H19.878L19.7183 14.6375H16.212V24.02H19.6177C22.0453 24.02 24 22.0653 24 19.6378V4.40225C24 1.97467 22.0453 0.0199911 19.6177 0.0199911H4.38223L4.38226 0.0199671Z" fill="black"/>
</svg>
